<svg xmlns="http://www.w3.org/2000/svg" viewBox="0 0 100 194.45"><defs><style>.cls-1{fill:#7db3ff;}.cls-2{fill:#e8962b;}</style></defs><g id="Layer_2" data-name="Layer 2"><g id="Layer_1-2" data-name="Layer 1"><g id="noun_Rocket_677352" data-name="noun Rocket 677352"><path id="Path_33" data-name="Path 33" class="cls-1" d="M7.77,103.64,4,109.51a23.68,23.68,0,0,0-3,19l4.22,15.91a5.69,5.69,0,0,0,7,4,5.54,5.54,0,0,0,2-1L28,136.77a102.24,102.24,0,0,0,8.12,8.14,4.48,4.48,0,0,0,4.19,1l29.91-8a4.46,4.46,0,0,0,3.12-3,104,104,0,0,0,3-11.12l17.19,2.25A5.7,5.7,0,0,0,100,121.2a5.82,5.82,0,0,0-.13-2.2l-4.25-15.86A23.72,23.72,0,0,0,83.48,88.23l-6.23-3.18c-4.9-32.14-23.16-60.3-54.4-83.75A6.54,6.54,0,0,0,12.92,4C-2.36,39.92-4.1,73.43,7.77,103.64ZM20,10.42C48.43,32.55,64.81,58.8,68.62,88.54A4.49,4.49,0,0,0,71,92l8.31,4.24a14.64,14.64,0,0,1,7.49,9.28l3,11.08-16.63-2.22a4.49,4.49,0,0,0-5,3.75,97.37,97.37,0,0,1-2.66,11.81l-25.13,6.75a98.78,98.78,0,0,1-8.22-8.89,4.49,4.49,0,0,0-6.24-.74L12.66,137.22l-3-11a14.66,14.66,0,0,1,1.85-11.75l5.07-7.83a4.47,4.47,0,0,0,.37-4.18c-11.53-27.67-10.52-58.63,3-92Z"/><path id="Path_4" data-name="Path 4" class="cls-2" d="M72.71,191.67l0-.08C84.68,170,79.42,153,76.54,146.66a5.23,5.23,0,0,0-9.79.72,24.76,24.76,0,0,1-4,8.18,6,6,0,0,1-7.15,1.92A24.77,24.77,0,0,1,48,152.39a5.23,5.23,0,0,0-8.84,4.28c.69,6.88,4.63,24.31,25.76,37a5.63,5.63,0,0,0,7.73-2l0-.06ZM50.56,165a9.1,9.1,0,0,0,1.49.68A15,15,0,0,0,69.92,161l1-1.34A43.22,43.22,0,0,1,66.52,184a43.18,43.18,0,0,1-16-18.94Z"/><g id="noun_link_3236007" data-name="noun link 3236007"><path id="Path_25" data-name="Path 25" class="cls-1" d="M45,75.87,46.89,83a14.69,14.69,0,0,1,.39,1.84l-.1-.77a10.76,10.76,0,0,1,0,2.66l.1-.78a10.84,10.84,0,0,1-.7,2.7l.31-.76a10.6,10.6,0,0,1-1.4,2.42l.51-.65a11.25,11.25,0,0,1-2,2l.63-.48a10.79,10.79,0,0,1-2.31,1.32l.72-.29a11.29,11.29,0,0,1-2.62.71l.77-.11a10.76,10.76,0,0,1-2.66,0l.78.1a10.44,10.44,0,0,1-2.7-.71l.76.32A10.6,10.6,0,0,1,35,91.07l.65.51a11.25,11.25,0,0,1-2-2l.48.63a10.38,10.38,0,0,1-1.32-2.31l.29.72A31.42,31.42,0,0,1,32,85l-1.24-4.6a18.68,18.68,0,0,1-.43-1.94l.11.77a10.3,10.3,0,0,1,0-2.66l-.1.78a11,11,0,0,1,.7-2.71l-.31.77a10.21,10.21,0,0,1,1.39-2.42l-.5.65a10.86,10.86,0,0,1,2-2l-.62.48a10.38,10.38,0,0,1,2.31-1.32l-.72.29a11.27,11.27,0,0,1,1.28-.42,3.19,3.19,0,0,0,1.86-1.42,3.07,3.07,0,0,0-1.12-4.18,3.18,3.18,0,0,0-2.32-.3,13.72,13.72,0,0,0-8.09,6,15.13,15.13,0,0,0-1.16,2.48,11,11,0,0,0-.54,1.94,14.45,14.45,0,0,0,.09,5.56c.28,1.32.68,2.62,1,3.91l1.12,4.2a10.26,10.26,0,0,0,.45,1.32,13.37,13.37,0,0,0,1.22,2.49,14.47,14.47,0,0,0,1.72,2.18,15.37,15.37,0,0,0,2.11,1.74,10.5,10.5,0,0,0,1.72,1,15.22,15.22,0,0,0,2.62,1,14.62,14.62,0,0,0,2.71.38,13.89,13.89,0,0,0,2.81-.2,9.63,9.63,0,0,0,2-.48,13.19,13.19,0,0,0,4.79-2.77A11.2,11.2,0,0,0,50.27,94a14.56,14.56,0,0,0,1.53-2.27,14.85,14.85,0,0,0,1.05-2.58,14.43,14.43,0,0,0,.47-2.69,10.33,10.33,0,0,0,0-2.08,16.81,16.81,0,0,0-.53-2.9l-.57-2.11L50.94,74.6l-.08-.3a3.14,3.14,0,0,0-1.43-1.86,3.06,3.06,0,0,0-4.17,1.12,3.18,3.18,0,0,0-.3,2.32Z"/><path id="Path_26" data-name="Path 26" class="cls-1" d="M27.08,66.49l-1.91-7.11a16.11,16.11,0,0,1-.4-1.83l.11.77a10.68,10.68,0,0,1,0-2.65l-.1.79a10.6,10.6,0,0,1,.7-2.71l-.32.76a11,11,0,0,1,1.4-2.42l-.49.64a10.56,10.56,0,0,1,2-2l-.63.48a10.23,10.23,0,0,1,2.32-1.32l-.73.29a11,11,0,0,1,2.59-.69l-.78.11a10.84,10.84,0,0,1,2.67,0l-.79-.1a11,11,0,0,1,2.71.7l-.73-.35a10.75,10.75,0,0,1,2.41,1.4l-.65-.5a10.26,10.26,0,0,1,2,2l-.48-.63a10.23,10.23,0,0,1,1.32,2.32l-.29-.73A30.86,30.86,0,0,1,40,57.39L41.23,62a17.62,17.62,0,0,1,.44,1.94l-.11-.78a10.84,10.84,0,0,1,0,2.67l.1-.78a10.42,10.42,0,0,1-.7,2.7l.32-.76a10.82,10.82,0,0,1-1.4,2.42l.5-.65a10.87,10.87,0,0,1-2,2l.63-.48a10.62,10.62,0,0,1-2.32,1.32l.73-.3a12,12,0,0,1-1.28.43,3.08,3.08,0,0,0-.79,5.62l.07,0a3.18,3.18,0,0,0,2.32.3,13.69,13.69,0,0,0,8.08-6.07A15.23,15.23,0,0,0,47,69.08a10.62,10.62,0,0,0,.54-1.93,14.2,14.2,0,0,0-.08-5.55c-.27-1.32-.68-2.62-1-3.92l-1.13-4.2a12,12,0,0,0-.44-1.32,14.36,14.36,0,0,0-1.22-2.49,15.13,15.13,0,0,0-1.72-2.18,16,16,0,0,0-2.11-1.74,10.19,10.19,0,0,0-1.73-1,14.3,14.3,0,0,0-2.61-.95,13.11,13.11,0,0,0-2.71-.38,13.91,13.91,0,0,0-2.81.16,9.79,9.79,0,0,0-2,.48,13.79,13.79,0,0,0-4.8,2.8,10.53,10.53,0,0,0-1.37,1.46,15.86,15.86,0,0,0-1.55,2.26,15.17,15.17,0,0,0-1,2.58,15.64,15.64,0,0,0-.45,2.71,10.23,10.23,0,0,0,0,2.07,16.81,16.81,0,0,0,.53,2.9L19.84,63l1.28,4.78.08.31a3.17,3.17,0,0,0,1.43,1.86A3.06,3.06,0,0,0,26.8,68.8a3.18,3.18,0,0,0,.3-2.32Z"/></g></g></g></g></svg>